<svg xmlns="http://www.w3.org/2000/svg" viewBox="0 0 149.2 169.1"><defs><style>.cls-1{fill:#95bf47;}.cls-2{fill:#5e8e3e;}.cls-3{fill:#fff;}</style></defs><g id="Layer_2" data-name="Layer 2"><g id="Layer_1-2" data-name="Layer 1"><path class="cls-1" d="M130.7,32.6a1.68,1.68,0,0,0-1.5-1.4c-.6-.1-12.6-.2-12.6-.2s-10.1-9.8-11.1-10.8-2.9-.7-3.7-.5l-5.1,1.6a33.3,33.3,0,0,0-2.4-5.9C90.7,8.5,85.5,4.9,79.1,4.9a5.7,5.7,0,0,0-1.3.1,4.35,4.35,0,0,1-.6-.7A13.26,13.26,0,0,0,66.7,0c-8.2.2-16.3,6.1-23,16.7-4.7,7.4-8.2,16.71-9.2,23.9-9.4,2.9-16,4.9-16.1,5-4.7,1.5-4.9,1.6-5.5,6.1C12.4,55,0,151.1,0,151.1l104.1,18,45.1-11.2S130.8,33.4,130.7,32.6ZM91.5,22.9c-2.4.7-5.1,1.6-8.1,2.5a46.93,46.93,0,0,0-2.5-14.9C87.2,11.7,90.2,18.7,91.5,22.9ZM78,27.1c-5.5,1.7-11.4,3.5-17.4,5.4,1.7-6.4,4.9-12.8,8.8-17a17.67,17.67,0,0,1,5.9-4.3C77.6,15.9,78,22.6,78,27.1ZM66.8,5.5a8.76,8.76,0,0,1,4.9,1.3,22.35,22.35,0,0,0-6.4,5C60.1,17.4,56.1,26,54.5,34.4c-5,1.5-9.8,3-14.3,4.4C43.2,25.6,54.2,5.9,66.8,5.5Z"/><path class="cls-2" d="M129.2,31.2c-.6-.1-12.6-.2-12.6-.2s-10.1-9.8-11.1-10.8a2,2,0,0,0-1.4-.6V169.1l45.1-11.2S130.8,33.5,130.7,32.6A1.79,1.79,0,0,0,129.2,31.2Z"/><path class="cls-3" d="M79.1,54.4,73.9,74a28.82,28.82,0,0,0-12.8-2.19c-10.2.6-10.3,7-10.2,8.69.6,8.81,23.6,10.7,24.9,31.2,1,16.2-8.6,27.2-22.4,28.11-16.6,1-25.7-8.7-25.7-8.7l3.5-14.9s9.2,6.9,16.5,6.5a6.44,6.44,0,0,0,6.3-7c-.7-11.4-19.5-10.8-20.7-29.5-1-15.8,9.4-31.8,32.3-33.3C74.6,52.11,79.1,54.41,79.1,54.4Z"/></g></g></svg>