# Blender 3.4.1
# www.blender.org
o Plane
v -0.911010 -1.240387 0.058153
v -0.966950 -1.184448 0.058153
v -0.923199 -1.239187 0.058153
v -0.933358 -1.236105 0.058153
v -0.942721 -1.231101 0.058153
v -0.950928 -1.224365 0.058153
v -0.957663 -1.216159 0.058153
v -0.962668 -1.206796 0.058153
v -0.965750 -1.196637 0.058153
v 0.966950 -1.184448 0.058153
v 0.911010 -1.240387 0.058153
v 0.965750 -1.196637 0.058153
v 0.962668 -1.206796 0.058153
v 0.957663 -1.216159 0.058153
v 0.950928 -1.224365 0.058153
v 0.942721 -1.231101 0.058153
v 0.933358 -1.236105 0.058153
v 0.923199 -1.239187 0.058153
v -0.966950 1.184448 0.058153
v -0.911010 1.240387 0.058153
v -0.965750 1.196637 0.058153
v -0.962668 1.206796 0.058153
v -0.957663 1.216159 0.058153
v -0.950928 1.224365 0.058153
v -0.942721 1.231101 0.058153
v -0.933358 1.236105 0.058153
v -0.923199 1.239187 0.058153
v 0.911010 1.240387 0.058153
v 0.966950 1.184448 0.058153
v 0.923199 1.239187 0.058153
v 0.933358 1.236105 0.058153
v 0.942721 1.231101 0.058153
v 0.950928 1.224365 0.058153
v 0.957663 1.216159 0.058153
v 0.962668 1.206796 0.058153
v 0.965750 1.196637 0.058153
v -0.912634 1.273438 -0.060594
v -1.000000 1.186071 -0.060594
v -0.929678 1.271759 -0.060594
v -0.946067 1.266787 -0.060594
v -0.961172 1.258714 -0.060594
v -0.974411 1.247849 -0.060594
v -0.985276 1.234609 -0.060594
v -0.993350 1.219505 -0.060594
v -0.998321 1.203116 -0.060594
v -1.000000 -1.186071 -0.060595
v -0.912634 -1.273438 -0.060595
v -0.998321 -1.203116 -0.060595
v -0.993350 -1.219505 -0.060595
v -0.985276 -1.234609 -0.060595
v -0.974411 -1.247849 -0.060595
v -0.961172 -1.258714 -0.060595
v -0.946067 -1.266787 -0.060595
v -0.929678 -1.271759 -0.060595
v 0.912634 -1.273438 -0.060595
v 1.000000 -1.186071 -0.060595
v 0.929678 -1.271759 -0.060595
v 0.946067 -1.266787 -0.060595
v 0.961172 -1.258714 -0.060595
v 0.974411 -1.247849 -0.060595
v 0.985276 -1.234609 -0.060595
v 0.993350 -1.219505 -0.060595
v 0.998321 -1.203116 -0.060595
v 1.000000 1.186071 -0.060594
v 0.912634 1.273438 -0.060594
v 0.998321 1.203116 -0.060594
v 0.993350 1.219505 -0.060594
v 0.985276 1.234609 -0.060594
v 0.974411 1.247849 -0.060594
v 0.961172 1.258714 -0.060594
v 0.946067 1.266787 -0.060594
v 0.929678 1.271759 -0.060594
v 0.912634 1.273438 0.056337
v 0.929678 1.271759 0.056337
v 0.946067 1.266787 0.056337
v 0.961172 1.258714 0.056337
v 0.974411 1.247849 0.056337
v 0.985276 1.234609 0.056337
v 0.993350 1.219505 0.056337
v 0.998321 1.203116 0.056337
v 1.000000 1.186071 0.056337
v 0.912634 -1.273438 0.056337
v 0.929678 -1.271759 0.056337
v 0.946067 -1.266787 0.056337
v 0.961172 -1.258714 0.056337
v 0.974411 -1.247849 0.056337
v 0.985276 -1.234609 0.056337
v 0.993350 -1.219505 0.056337
v 0.998321 -1.203116 0.056337
v 1.000000 -1.186071 0.056337
v -0.912634 -1.273438 0.056337
v -0.929678 -1.271759 0.056337
v -0.946067 -1.266787 0.056337
v -0.961172 -1.258714 0.056337
v -0.974411 -1.247849 0.056337
v -0.985276 -1.234609 0.056337
v -0.993350 -1.219505 0.056337
v -0.998321 -1.203116 0.056337
v -1.000000 -1.186071 0.056337
v -0.912634 1.273438 0.056337
v -0.929678 1.271759 0.056337
v -0.946067 1.266787 0.056337
v -0.961172 1.258714 0.056337
v -0.974411 1.247849 0.056337
v -0.985276 1.234609 0.056337
v -0.993350 1.219505 0.056337
v -0.998321 1.203116 0.056337
v -1.000000 1.186071 0.056337
v 0.912634 1.273438 -0.058971
v 0.929678 -1.271759 -0.058971
v 0.946067 -1.266787 -0.058971
v 0.961172 -1.258714 -0.058971
v 0.974411 -1.247849 -0.058971
v 0.985276 -1.234609 -0.058971
v 0.993350 -1.219505 -0.058971
v 0.998321 -1.203116 -0.058971
v 1.000000 -1.186071 -0.058971
v -0.912634 -1.273438 -0.058971
v -0.929678 1.271759 -0.058971
v -0.946067 1.266787 -0.058971
v -0.961172 1.258714 -0.058971
v -0.974411 1.247849 -0.058971
v -0.985276 1.234609 -0.058971
v -0.993350 1.219505 -0.058971
v -0.998321 1.203116 -0.058971
v -1.000000 1.186071 -0.058971
v 0.929678 1.271759 -0.058971
v 0.946067 1.266787 -0.058971
v 0.961172 1.258714 -0.058971
v 0.974411 1.247849 -0.058971
v 0.985276 1.234609 -0.058971
v 0.993350 1.219505 -0.058971
v 0.998321 1.203116 -0.058971
v 1.000000 1.186071 -0.058971
v 0.912634 -1.273438 -0.058971
v -0.929678 -1.271759 -0.058971
v -0.946067 -1.266787 -0.058971
v -0.961172 -1.258714 -0.058971
v -0.974411 -1.247849 -0.058971
v -0.985276 -1.234609 -0.058971
v -0.993350 -1.219505 -0.058971
v -0.998321 -1.203116 -0.058971
v -1.000000 -1.186071 -0.058971
v -0.912634 1.273438 -0.058971
v 0.929678 1.271759 0.058153
v 0.912634 1.273438 0.058153
v 0.946067 1.266787 0.058153
v 0.961172 1.258714 0.058153
v 0.974411 1.247849 0.058153
v 0.985276 1.234609 0.058153
v 0.993350 1.219505 0.058153
v 0.998321 1.203116 0.058153
v 1.000000 1.186071 0.058153
v 0.912634 -1.273438 0.058153
v 0.929678 -1.271759 0.058153
v 0.946067 -1.266787 0.058153
v 0.961172 -1.258714 0.058153
v 0.974411 -1.247849 0.058153
v 0.985276 -1.234609 0.058153
v 0.993350 -1.219505 0.058153
v 0.998321 -1.203116 0.058153
v 1.000000 -1.186071 0.058153
v -0.929678 -1.271759 0.058153
v -0.912634 -1.273438 0.058153
v -0.946067 -1.266787 0.058153
v -0.961172 -1.258714 0.058153
v -0.974411 -1.247849 0.058153
v -0.985276 -1.234609 0.058153
v -0.993350 -1.219505 0.058153
v -0.998321 -1.203116 0.058153
v -1.000000 -1.186071 0.058153
v -0.912634 1.273438 0.058153
v -0.929678 1.271759 0.058153
v -0.946067 1.266787 0.058153
v -0.961172 1.258714 0.058153
v -0.974411 1.247849 0.058153
v -0.985276 1.234609 0.058153
v -0.993350 1.219505 0.058153
v -0.998321 1.203116 0.058153
v -1.000000 1.186071 0.058153
v 0.000000 0.000000 0.058153
vn -0.0000 -1.0000 -0.0000
vn -0.0000 1.0000 -0.0000
vn -0.0000 -0.0000 1.0000
vn 1.0000 -0.0000 -0.0000
vn 0.0980 0.9952 -0.0000
vn 0.2903 0.9569 -0.0000
vn 0.4714 0.8819 -0.0000
vn 0.6344 0.7730 -0.0000
vn 0.7730 0.6344 -0.0000
vn 0.8819 0.4714 -0.0000
vn 0.9569 0.2903 -0.0000
vn 0.9952 0.0980 -0.0000
vn 0.0980 -0.9952 -0.0000
vn 0.2903 -0.9569 -0.0000
vn 0.4714 -0.8819 -0.0000
vn 0.6344 -0.7730 -0.0000
vn 0.7730 -0.6344 -0.0000
vn 0.8819 -0.4714 -0.0000
vn 0.9569 -0.2903 -0.0000
vn 0.9952 -0.0980 -0.0000
vn -0.0980 -0.9952 -0.0000
vn -0.2903 -0.9569 -0.0000
vn -0.4714 -0.8819 -0.0000
vn -0.6344 -0.7730 -0.0000
vn -0.7730 -0.6344 -0.0000
vn -0.8819 -0.4714 -0.0000
vn -0.9569 -0.2903 -0.0000
vn -0.9952 -0.0980 -0.0000
vn -0.0980 0.9952 -0.0000
vn -0.2903 0.9569 -0.0000
vn -0.4714 0.8819 -0.0000
vn -0.6344 0.7730 -0.0000
vn -0.7730 0.6344 -0.0000
vn -0.8819 0.4714 -0.0000
vn -0.9569 0.2903 -0.0000
vn -0.9952 0.0980 -0.0000
vn -1.0000 -0.0000 -0.0000
vn -0.9808 0.1951 -0.0000
vn -0.9988 0.0491 -0.0000
vn -0.9239 0.3827 -0.0000
vn -0.8315 0.5556 -0.0000
vn -0.7071 0.7071 -0.0000
vn -0.5556 0.8315 -0.0000
vn -0.3827 0.9239 -0.0000
vn -0.1951 0.9808 -0.0000
vn -0.0491 0.9988 -0.0000
vn 0.9808 -0.1951 -0.0000
vn 0.9988 -0.0491 -0.0000
vn 0.9239 -0.3827 -0.0000
vn 0.8315 -0.5556 -0.0000
vn 0.7071 -0.7071 -0.0000
vn 0.5556 -0.8315 -0.0000
vn 0.3827 -0.9239 -0.0000
vn 0.1951 -0.9808 -0.0000
vn 0.0491 -0.9988 -0.0000
vn -0.9988 -0.0491 -0.0000
vn -0.9808 -0.1951 -0.0000
vn -0.9239 -0.3827 -0.0000
vn -0.8315 -0.5556 -0.0000
vn -0.7071 -0.7071 -0.0000
vn -0.5556 -0.8315 -0.0000
vn -0.3827 -0.9239 -0.0000
vn -0.1951 -0.9808 -0.0000
vn -0.0491 -0.9988 -0.0000
vn 0.9808 0.1951 -0.0000
vn 0.9988 0.0491 -0.0000
vn 0.9239 0.3827 -0.0000
vn 0.8315 0.5556 -0.0000
vn 0.7071 0.7071 -0.0000
vn 0.5556 0.8315 -0.0000
vn 0.3827 0.9239 -0.0000
vn 0.1951 0.9808 -0.0000
vn 0.0491 0.9988 -0.0000
vt 0.044586 0.013074
vt 0.016622 0.035034
vt 0.038493 0.013545
vt 0.033414 0.014755
vt 0.028734 0.016720
vt 0.024631 0.019364
vt 0.021264 0.022585
vt 0.018762 0.026261
vt 0.017222 0.030249
vt 0.983378 0.035034
vt 0.955414 0.013074
vt 0.982778 0.030249
vt 0.981237 0.026261
vt 0.978736 0.022585
vt 0.975369 0.019364
vt 0.971266 0.016720
vt 0.966586 0.014755
vt 0.961507 0.013545
vt 0.016622 0.964966
vt 0.044586 0.986926
vt 0.017222 0.969751
vt 0.018762 0.973739
vt 0.021264 0.977414
vt 0.024631 0.980636
vt 0.028734 0.983280
vt 0.033414 0.985244
vt 0.038493 0.986454
vt 0.955414 0.986926
vt 0.983378 0.964966
vt 0.961507 0.986454
vt 0.966586 0.985244
vt 0.971266 0.983280
vt 0.975369 0.980636
vt 0.978736 0.977414
vt 0.981237 0.973739
vt 0.982778 0.969751
vt 0.043683 1.000000
vt 0.000000 0.965697
vt 0.035161 0.999780
vt 0.026966 0.999130
vt 0.019414 0.998073
vt 0.004265 0.996651
vt 0.002454 0.984755
vt 0.001108 0.978824
vt 0.000280 0.972389
vt 0.000000 0.034303
vt 0.043683 0.000000
vt 0.000280 0.027611
vt 0.001108 0.021176
vt 0.002454 0.015245
vt 0.004265 0.003349
vt 0.019414 0.001927
vt 0.026966 0.000870
vt 0.035161 0.000220
vt 0.956317 0.000000
vt 1.000000 0.034303
vt 0.964839 0.000220
vt 0.973034 0.000870
vt 0.980586 0.001927
vt 0.995735 0.003349
vt 0.997546 0.015245
vt 0.998892 0.021176
vt 0.999720 0.027611
vt 1.000000 0.965697
vt 0.956317 1.000000
vt 0.999720 0.972389
vt 0.998892 0.978824
vt 0.997546 0.984755
vt 0.995735 0.996651
vt 0.980586 0.998073
vt 0.973034 0.999130
vt 0.964839 0.999780
vt 0.956317 1.000000
vt 0.964839 0.999780
vt 0.973034 0.999130
vt 0.980586 0.998073
vt 0.995735 0.996651
vt 0.997546 0.984755
vt 0.998892 0.978824
vt 0.999720 0.972389
vt 1.000000 0.965697
vt 0.956317 0.000000
vt 0.964839 0.000220
vt 0.973034 0.000870
vt 0.980586 0.001927
vt 0.995735 0.003349
vt 0.997546 0.015245
vt 0.998892 0.021176
vt 0.999720 0.027611
vt 1.000000 0.034303
vt 0.043683 0.000000
vt 0.035161 0.000220
vt 0.026966 0.000870
vt 0.019414 0.001927
vt 0.004265 0.003349
vt 0.002454 0.015245
vt 0.001108 0.021176
vt 0.000280 0.027611
vt 0.000000 0.034303
vt 0.043683 1.000000
vt 0.035161 0.999780
vt 0.026966 0.999130
vt 0.019414 0.998073
vt 0.004265 0.996651
vt 0.002454 0.984755
vt 0.001108 0.978824
vt 0.000280 0.972389
vt 0.000000 0.965697
vt 0.956317 1.000000
vt 0.964839 0.000220
vt 0.973034 0.000870
vt 0.980586 0.001927
vt 0.995735 0.003349
vt 0.997546 0.015245
vt 0.998892 0.021176
vt 0.999720 0.027611
vt 1.000000 0.034303
vt 0.043683 0.000000
vt 0.035161 0.999780
vt 0.026966 0.999130
vt 0.019414 0.998073
vt 0.004265 0.996651
vt 0.002454 0.984755
vt 0.001108 0.978824
vt 0.000280 0.972389
vt 0.000000 0.965697
vt 0.964839 0.999780
vt 0.973034 0.999130
vt 0.980586 0.998073
vt 0.995735 0.996651
vt 0.997546 0.984755
vt 0.998892 0.978824
vt 0.999720 0.972389
vt 1.000000 0.965697
vt 0.956317 0.000000
vt 0.035161 0.000220
vt 0.026966 0.000870
vt 0.019414 0.001927
vt 0.004265 0.003349
vt 0.002454 0.015245
vt 0.001108 0.021176
vt 0.000280 0.027611
vt 0.000000 0.034303
vt 0.043683 1.000000
vt 0.964839 0.999780
vt 0.964746 0.999241
vt 0.956317 1.000000
vt 0.956225 0.999900
vt 0.973034 0.999130
vt 0.972939 0.997289
vt 0.980586 0.998073
vt 0.980490 0.994120
vt 0.995735 0.996651
vt 0.987108 0.989854
vt 0.997546 0.984755
vt 0.992539 0.984657
vt 0.998892 0.978824
vt 0.996575 0.978728
vt 0.999720 0.972389
vt 0.999061 0.972294
vt 1.000000 0.965697
vt 0.999900 0.965603
vt 0.956225 0.000100
vt 0.964839 0.000220
vt 0.964746 0.000759
vt 0.973034 0.000870
vt 0.972939 0.002711
vt 0.980586 0.001927
vt 0.980489 0.005880
vt 0.995735 0.003349
vt 0.987108 0.010145
vt 0.997546 0.015245
vt 0.992539 0.015342
vt 0.998892 0.021176
vt 0.996575 0.021272
vt 0.999720 0.027611
vt 0.999061 0.027705
vt 1.000000 0.034303
vt 0.999900 0.034396
vt 0.035161 0.000220
vt 0.035254 0.000759
vt 0.043683 0.000000
vt 0.043775 0.000100
vt 0.026966 0.000870
vt 0.027061 0.002711
vt 0.019414 0.001927
vt 0.019510 0.005880
vt 0.004265 0.003349
vt 0.012892 0.010145
vt 0.002454 0.015245
vt 0.007460 0.015342
vt 0.001108 0.021176
vt 0.003425 0.021272
vt 0.000280 0.027611
vt 0.000939 0.027705
vt 0.000000 0.034303
vt 0.000100 0.034396
vt 0.043683 1.000000
vt 0.043775 0.999900
vt 0.035161 0.999780
vt 0.035254 0.999241
vt 0.026966 0.999130
vt 0.027061 0.997289
vt 0.019414 0.998073
vt 0.019510 0.994120
vt 0.004265 0.996651
vt 0.012892 0.989854
vt 0.002454 0.984755
vt 0.007461 0.984657
vt 0.001108 0.978824
vt 0.003425 0.978728
vt 0.000280 0.972389
vt 0.000939 0.972294
vt 0.000000 0.965697
vt 0.000100 0.965603
vt 0.500000 0.500000
s 0
f 118/118/1 47/47/1 55/55/1 135/135/1
f 109/109/2 65/65/2 37/37/2 144/144/2
f 14/14/3 13/13/3 181/216/3
f 117/117/4 56/56/4 64/64/4 134/134/4
f 109/109/5 127/127/5 72/72/5 65/65/5
f 127/127/6 128/128/6 71/71/6 72/72/6
f 128/128/7 129/129/7 70/70/7 71/71/7
f 129/129/8 130/130/8 69/69/8 70/70/8
f 130/130/9 131/131/9 68/68/9 69/69/9
f 131/131/10 132/132/10 67/67/10 68/68/10
f 132/132/11 133/133/11 66/66/11 67/67/11
f 133/133/12 134/134/12 64/64/12 66/66/12
f 82/82/13 83/83/13 155/164/13 154/163/13
f 83/83/14 84/84/14 156/166/14 155/164/14
f 84/84/15 85/85/15 157/168/15 156/166/15
f 85/85/16 86/86/16 158/170/16 157/168/16
f 86/86/17 87/87/17 159/172/17 158/170/17
f 87/87/18 88/88/18 160/174/18 159/172/18
f 88/88/19 89/89/19 161/176/19 160/174/19
f 89/89/20 90/90/20 162/178/20 161/176/20
f 118/118/21 136/136/21 54/54/21 47/47/21
f 136/136/22 137/137/22 53/53/22 54/54/22
f 137/137/23 138/138/23 52/52/23 53/53/23
f 138/138/24 139/139/24 51/51/24 52/52/24
f 139/139/25 140/140/25 50/50/25 51/51/25
f 140/140/26 141/141/26 49/49/26 50/50/26
f 141/141/27 142/142/27 48/48/27 49/49/27
f 142/142/28 143/143/28 46/46/28 48/48/28
f 100/100/29 101/101/29 173/200/29 172/198/29
f 101/101/30 102/102/30 174/202/30 173/200/30
f 102/102/31 103/103/31 175/204/31 174/202/31
f 103/103/32 104/104/32 176/206/32 175/204/32
f 104/104/33 105/105/33 177/208/33 176/206/33
f 105/105/34 106/106/34 178/210/34 177/208/34
f 106/106/35 107/107/35 179/212/35 178/210/35
f 107/107/36 108/108/36 180/214/36 179/212/36
f 126/126/37 38/38/37 46/46/37 143/143/37
f 180/214/37 108/108/37 99/99/37 171/196/37
s 1
f 125/125/38 126/126/39 108/108/39 107/107/38
f 124/124/40 125/125/38 107/107/38 106/106/40
f 123/123/41 124/124/40 106/106/40 105/105/41
f 122/122/42 123/123/41 105/105/41 104/104/42
f 121/121/43 122/122/42 104/104/42 103/103/43
f 120/120/44 121/121/43 103/103/43 102/102/44
f 119/119/45 120/120/44 102/102/44 101/101/45
f 144/144/46 119/119/45 101/101/45 100/100/46
s 0
f 170/194/28 171/196/28 99/99/28 98/98/28
f 169/192/27 170/194/27 98/98/27 97/97/27
f 168/190/26 169/192/26 97/97/26 96/96/26
f 167/188/25 168/190/25 96/96/25 95/95/25
f 166/186/24 167/188/24 95/95/24 94/94/24
f 165/184/23 166/186/23 94/94/23 93/93/23
f 163/180/22 165/184/22 93/93/22 92/92/22
f 164/182/21 163/180/21 92/92/21 91/91/21
s 1
f 116/116/47 117/117/48 90/90/48 89/89/47
f 115/115/49 116/116/47 89/89/47 88/88/49
f 114/114/50 115/115/49 88/88/49 87/87/50
f 113/113/51 114/114/50 87/87/50 86/86/51
f 112/112/52 113/113/51 86/86/51 85/85/52
f 111/111/53 112/112/52 85/85/52 84/84/53
f 110/110/54 111/111/53 84/84/53 83/83/54
f 135/135/55 110/110/54 83/83/54 82/82/55
s 0
f 152/159/12 153/161/12 81/81/12 80/80/12
f 151/157/11 152/159/11 80/80/11 79/79/11
f 150/155/10 151/157/10 79/79/10 78/78/10
f 149/153/9 150/155/9 78/78/9 77/77/9
f 148/151/8 149/153/8 77/77/8 76/76/8
f 147/149/7 148/151/7 76/76/7 75/75/7
f 145/145/6 147/149/6 75/75/6 74/74/6
f 146/147/5 145/145/5 74/74/5 73/73/5
f 162/178/4 90/90/4 81/81/4 153/161/4
f 146/147/2 73/73/2 100/100/2 172/198/2
f 164/182/1 91/91/1 82/82/1 154/163/1
f 55/55/13 57/57/13 110/110/13 135/135/13
f 57/57/14 58/58/14 111/111/14 110/110/14
f 58/58/15 59/59/15 112/112/15 111/111/15
f 59/59/16 60/60/16 113/113/16 112/112/16
f 60/60/17 61/61/17 114/114/17 113/113/17
f 61/61/18 62/62/18 115/115/18 114/114/18
f 62/62/19 63/63/19 116/116/19 115/115/19
f 63/63/20 56/56/20 117/117/20 116/116/20
f 37/37/29 39/39/29 119/119/29 144/144/29
f 39/39/30 40/40/30 120/120/30 119/119/30
f 40/40/31 41/41/31 121/121/31 120/120/31
f 41/41/32 42/42/32 122/122/32 121/121/32
f 42/42/33 43/43/33 123/123/33 122/122/33
f 43/43/34 44/44/34 124/124/34 123/123/34
f 44/44/35 45/45/35 125/125/35 124/124/35
f 45/45/36 38/38/36 126/126/36 125/125/36
s 1
f 108/108/39 126/126/39 143/143/56 99/99/56
f 98/98/57 99/99/56 143/143/56 142/142/57
f 97/97/58 98/98/57 142/142/57 141/141/58
f 96/96/59 97/97/58 141/141/58 140/140/59
f 95/95/60 96/96/59 140/140/59 139/139/60
f 94/94/61 95/95/60 139/139/60 138/138/61
f 93/93/62 94/94/61 138/138/61 137/137/62
f 92/92/63 93/93/62 137/137/62 136/136/63
f 91/91/64 92/92/63 136/136/63 118/118/64
f 80/80/65 81/81/66 134/134/66 133/133/65
f 79/79/67 80/80/65 133/133/65 132/132/67
f 78/78/68 79/79/67 132/132/67 131/131/68
f 77/77/69 78/78/68 131/131/68 130/130/69
f 76/76/70 77/77/69 130/130/69 129/129/70
f 75/75/71 76/76/70 129/129/70 128/128/71
f 74/74/72 75/75/71 128/128/71 127/127/72
f 73/73/73 74/74/72 127/127/72 109/109/73
f 90/90/48 117/117/48 134/134/66 81/81/66
f 73/73/73 109/109/73 144/144/46 100/100/46
f 91/91/64 118/118/64 135/135/55 82/82/55
s 0
f 28/28/3 30/30/3 145/146/3 146/148/3
f 30/30/3 31/31/3 147/150/3 145/146/3
f 31/31/3 32/32/3 148/152/3 147/150/3
f 32/32/3 33/33/3 149/154/3 148/152/3
f 33/33/3 34/34/3 150/156/3 149/154/3
f 34/34/3 35/35/3 151/158/3 150/156/3
f 35/35/3 36/36/3 152/160/3 151/158/3
f 36/36/3 29/29/3 153/162/3 152/160/3
f 18/18/3 11/11/3 154/163/3 155/165/3
f 17/17/3 18/18/3 155/165/3 156/167/3
f 16/16/3 17/17/3 156/167/3 157/169/3
f 15/15/3 16/16/3 157/169/3 158/171/3
f 14/14/3 15/15/3 158/171/3 159/173/3
f 13/13/3 14/14/3 159/173/3 160/175/3
f 12/12/3 13/13/3 160/175/3 161/177/3
f 10/10/3 12/12/3 161/177/3 162/179/3
f 1/1/3 3/3/3 163/181/3 164/183/3
f 3/3/3 4/4/3 165/185/3 163/181/3
f 4/4/3 5/5/3 166/187/3 165/185/3
f 5/5/3 6/6/3 167/189/3 166/187/3
f 6/6/3 7/7/3 168/191/3 167/189/3
f 7/7/3 8/8/3 169/193/3 168/191/3
f 8/8/3 9/9/3 170/195/3 169/193/3
f 9/9/3 2/2/3 171/197/3 170/195/3
f 27/27/3 20/20/3 172/199/3 173/201/3
f 26/26/3 27/27/3 173/201/3 174/203/3
f 25/25/3 26/26/3 174/203/3 175/205/3
f 24/24/3 25/25/3 175/205/3 176/207/3
f 23/23/3 24/24/3 176/207/3 177/209/3
f 22/22/3 23/23/3 177/209/3 178/211/3
f 21/21/3 22/22/3 178/211/3 179/213/3
f 19/19/3 21/21/3 179/213/3 180/215/3
f 2/2/3 19/19/3 180/215/3 171/197/3
f 11/11/3 1/1/3 164/183/3 154/163/3
f 20/20/3 28/28/3 146/148/3 172/199/3
f 29/29/3 10/10/3 162/179/3 153/162/3
f 30/30/3 28/28/3 181/216/3
f 25/25/3 24/24/3 181/216/3
f 13/13/3 12/12/3 181/216/3
f 31/31/3 30/30/3 181/216/3
f 24/24/3 23/23/3 181/216/3
f 12/12/3 10/10/3 181/216/3
f 32/32/3 31/31/3 181/216/3
f 23/23/3 22/22/3 181/216/3
f 3/3/3 1/1/3 181/216/3
f 33/33/3 32/32/3 181/216/3
f 22/22/3 21/21/3 181/216/3
f 4/4/3 3/3/3 181/216/3
f 34/34/3 33/33/3 181/216/3
f 21/21/3 19/19/3 181/216/3
f 5/5/3 4/4/3 181/216/3
f 35/35/3 34/34/3 181/216/3
f 19/19/3 2/2/3 181/216/3
f 6/6/3 5/5/3 181/216/3
f 36/36/3 35/35/3 181/216/3
f 1/1/3 11/11/3 181/216/3
f 7/7/3 6/6/3 181/216/3
f 29/29/3 36/36/3 181/216/3
f 28/28/3 20/20/3 181/216/3
f 8/8/3 7/7/3 181/216/3
f 11/11/3 18/18/3 181/216/3
f 10/10/3 29/29/3 181/216/3
f 9/9/3 8/8/3 181/216/3
f 18/18/3 17/17/3 181/216/3
f 2/2/3 9/9/3 181/216/3
f 17/17/3 16/16/3 181/216/3
f 20/20/3 27/27/3 181/216/3
f 16/16/3 15/15/3 181/216/3
f 27/27/3 26/26/3 181/216/3
f 15/15/3 14/14/3 181/216/3
f 26/26/3 25/25/3 181/216/3
